<svg xmlns="http://www.w3.org/2000/svg" xmlns:xlink="http://www.w3.org/1999/xlink" version="1.1" x="0px" y="0px" viewBox="0 0 512 640" enable-background="new 0 0 512 512" xml:space="preserve"><g><path d="M459.2,205.2c0-14-11.4-25.4-25.4-25.4c-14,0-25.4,11.4-25.4,25.4c0,84-68.4,152.4-152.4,152.4   c-84,0-152.4-68.4-152.4-152.4c0-14-11.4-25.4-25.4-25.4c-14,0-25.4,11.4-25.4,25.4c0,103.4,77.7,188.9,177.8,201.4v52.6h-25.4   c-14,0-25.4,11.4-25.4,25.4s11.4,25.4,25.4,25.4h101.6c14,0,25.4-11.4,25.4-25.4s-11.4-25.4-25.4-25.4h-25.4v-52.6   C381.5,394.1,459.2,308.6,459.2,205.2z"/><path d="M256,306.8c56.1,0,101.6-45.5,101.6-101.6V103.6C357.6,47.5,312.1,2,256,2c-56.1,0-101.6,45.5-101.6,101.6v101.6   C154.4,261.3,199.9,306.8,256,306.8z"/></g><text x="0" y="527" fill="#000000" font-size="5px" font-weight="bold" font-family="'Helvetica Neue', Helvetica, Arial-Unicode, Arial, Sans-serif">Created by Icon Fair</text><text x="0" y="532" fill="#000000" font-size="5px" font-weight="bold" font-family="'Helvetica Neue', Helvetica, Arial-Unicode, Arial, Sans-serif">from the Noun Project</text></svg>