<svg xmlns="http://www.w3.org/2000/svg" xmlns:xlink="http://www.w3.org/1999/xlink" version="1.1" x="0px" y="0px" viewBox="0 0 512 640" enable-background="new 0 0 512 512" xml:space="preserve"><g><path d="M433.8,179.8c-14,0-25.4,11.4-25.4,25.4v25.4c0,84-68.4,152.4-152.4,152.4s-152.4-68.4-152.4-152.4v-25.4   c0-14-11.4-25.4-25.4-25.4c-14,0-25.4,11.4-25.4,25.4v25.4c0,103.4,77.7,188.9,177.8,201.4v27.2h-25.4c-14,0-25.4,11.4-25.4,25.4   s11.4,25.4,25.4,25.4h101.6c14,0,25.4-11.4,25.4-25.4s-11.4-25.4-25.4-25.4h-25.4V432c100.1-12.6,177.8-98,177.8-201.4v-25.4   C459.2,191.2,447.8,179.8,433.8,179.8z"/><path d="M256,332.2c56,0,101.6-45.6,101.6-101.6v-127C357.6,47.6,312,2,256,2S154.4,47.6,154.4,103.6v127   C154.4,286.6,200,332.2,256,332.2z M205.2,103.6c0-28,22.8-50.8,50.8-50.8s50.8,22.8,50.8,50.8v127c0,28-22.8,50.8-50.8,50.8   s-50.8-22.8-50.8-50.8V103.6z"/></g><text x="0" y="527" fill="#000000" font-size="5px" font-weight="bold" font-family="'Helvetica Neue', Helvetica, Arial-Unicode, Arial, Sans-serif">Created by Icon Fair</text><text x="0" y="532" fill="#000000" font-size="5px" font-weight="bold" font-family="'Helvetica Neue', Helvetica, Arial-Unicode, Arial, Sans-serif">from the Noun Project</text></svg>