<svg xmlns:dc="http://purl.org/dc/elements/1.1/" xmlns:cc="http://creativecommons.org/ns#" xmlns:rdf="http://www.w3.org/1999/02/22-rdf-syntax-ns#" xmlns:svg="http://www.w3.org/2000/svg" xmlns="http://www.w3.org/2000/svg" xmlns:sodipodi="http://sodipodi.sourceforge.net/DTD/sodipodi-0.dtd" xmlns:inkscape="http://www.inkscape.org/namespaces/inkscape" version="1.1" x="0px" y="0px" viewBox="0 0 100 125"><g transform="translate(0,-952.36218)"><g transform="translate(20.998031,959.86021)"><g transform="translate(-11.994093,1.470475)"><path d="M 40.996062,0.03543307 C 18.35433,0.03543307 0,18.389763 0,41.031495 c 0,22.641732 18.35433,40.996062 40.996062,40.996062 22.641732,0 40.996062,-18.35433 40.996062,-40.996062 0,-22.641732 -18.35433,-40.99606193 -40.996062,-40.99606193 z m 0,1.98425193 c 21.543307,0 39.01181,17.468504 39.01181,39.01181 0,21.543307 -17.468503,39.01181 -39.01181,39.01181 -21.543306,0 -39.0118101,-17.468503 -39.0118101,-39.01181 0,-21.543306 17.4685041,-39.01181 39.0118101,-39.01181 z m -0.992126,12.011811 0,26.007873 -26.007873,0 0,1.984252 26.007873,0 0,26.007874 1.984252,0 0,-26.007874 26.007874,0 0,-1.984252 -26.007874,0 0,-26.007873 z" style="" fill="#000000" fill-opacity="1" fill-rule="nonzero" stroke="none"/></g></g></g></svg>